<svg height="511pt" viewBox="0 -6 511.99913 511" width="511pt" xmlns="http://www.w3.org/2000/svg"><path d="m504.472656 324.789062c4.15625 0 7.527344-3.371093 7.527344-7.53125v-257.980468c0-16.875-13.730469-30.601563-30.601562-30.601563h-37.667969v-3.058593c0-13.847657-11.269531-25.117188-25.121094-25.117188h-8.417969c-13.847656 0-25.117187 11.269531-25.117187 25.117188v3.058593h-146.804688c-4.160156 0-7.527343 3.367188-7.527343 7.527344 0 4.15625 3.367187 7.527344 7.527343 7.527344h146.804688v20.183593c0 13.851563 11.269531 25.121094 25.117187 25.121094h8.417969c13.851563 0 25.121094-11.269531 25.121094-25.121094v-20.183593h37.667969c8.570312 0 15.546874 6.972656 15.546874 15.546875v46.445312h-453.554687v-46.445312c0-8.574219 6.972656-15.546875 15.546875-15.546875h37.667969v20.183593c0 13.851563 11.265625 25.121094 25.117187 25.121094h8.417969c13.851563 0 25.121094-11.269531 25.121094-25.121094v-20.183593h36.835937c4.160156 0 7.527344-3.371094 7.527344-7.527344s-3.367188-7.527344-7.527344-7.527344h-36.835937v-3.058593c0-13.847657-11.269531-25.117188-25.121094-25.117188h-8.417969c-13.851562 0-25.117187 11.269531-25.117187 25.117188v3.058593h-37.667969c-16.875 0-30.601562 13.726563-30.601562 30.601563v352.546875h-10.734376c-4.988281 0-9.761718 2.128906-13.09375 5.84375-3.339843 3.722656-4.945312 8.710937-4.40625 13.679687 6.410157 58.914063 47.613282 67.691406 49.367188 68.039063.476562.09375.964844.140625 1.453125.140625h414.085937c.027344 0 .050782-.003906.078126-.003906h16.3125c16.871093 0 30.601562-13.726563 30.601562-30.601563v-106c0-4.15625-3.371094-7.527344-7.527344-7.527344-4.160156 0-7.527344 3.371094-7.527344 7.527344v106c0 8.570313-6.976562 15.546875-15.546874 15.546875h-12.761719c-.367188-.203125-.75-.378906-1.15625-.519531-3.941407-1.371094-11.640625-4.894531-18.902344-13.09375-9.210937-10.402344-14.730469-24.863281-16.410156-42.992188-.847657-9.144531-8.378907-16.039062-17.527344-16.039062h-371.25v-291.046875h453.554687v196.480468c0 4.160157 3.367188 7.53125 7.527344 7.53125zm-75.796875-260.875c0 5.550782-4.515625 10.066407-10.066406 10.066407h-8.417969c-5.546875 0-10.0625-4.515625-10.0625-10.066407v-38.296874c0-5.546876 4.515625-10.0625 10.0625-10.0625h8.417969c5.550781 0 10.066406 4.515624 10.066406 10.0625zm-317.015625-38.296874c0-5.546876 4.515625-10.0625 10.0625-10.0625h8.417969c5.550781 0 10.066406 4.515624 10.066406 10.0625v38.296874c0 5.550782-4.515625 10.066407-10.066406 10.066407h-8.417969c-5.550781 0-10.0625-4.515625-10.0625-10.066407zm305.519532 403.632812c2.585937 27.957031 13.144531 44.992188 23.707031 55.21875 0 0-355.664063 0-355.664063.003906h-33.421875c-7.464843-2.007812-14.246093-6.902344-19.460937-12.464844-5.054688-5.394531-8.882813-11.835937-11.632813-18.679687-1.460937-3.632813-9.332031-26.449219-3.101562-26.449219h397.039062c1.316407 0 2.410157 1.019532 2.535157 2.371094zm0 0"/><path d="m98.007812 166.300781c-15.71875 0-28.503906 12.789063-28.503906 28.503907 0 15.722656 12.785156 28.507812 28.503906 28.507812s28.507813-12.789062 28.507813-28.507812c0-15.714844-12.789063-28.503907-28.507813-28.503907zm0 41.957031c-7.417968 0-13.449218-6.035156-13.449218-13.449218 0-7.417969 6.03125-13.449219 13.449218-13.449219 7.417969 0 13.453126 6.03125 13.453126 13.449219 0 7.414062-6.035157 13.449218-13.453126 13.449218zm0 0"/><path d="m184.089844 223.3125c15.714844 0 28.503906-12.785156 28.503906-28.503906s-12.789062-28.507813-28.503906-28.507813c-15.722656 0-28.507813 12.789063-28.507813 28.507813s12.785157 28.503906 28.507813 28.503906zm0-41.957031c7.414062 0 13.449218 6.035156 13.449218 13.449219 0 7.417968-6.035156 13.453124-13.449218 13.453124-7.417969 0-13.453125-6.035156-13.453125-13.453124 0-7.414063 6.035156-13.449219 13.453125-13.449219zm0 0"/><path d="m270.167969 166.300781c-15.71875 0-28.507813 12.789063-28.507813 28.503907 0 15.722656 12.789063 28.507812 28.507813 28.507812s28.503906-12.789062 28.503906-28.507812c0-15.714844-12.785156-28.503907-28.503906-28.503907zm0 41.957031c-7.417969 0-13.453125-6.035156-13.453125-13.449218 0-7.417969 6.035156-13.449219 13.453125-13.449219s13.449219 6.03125 13.449219 13.449219c0 7.414062-6.035157 13.449218-13.449219 13.449218zm0 0"/><path d="m356.246094 166.300781c-15.71875 0-28.507813 12.789063-28.507813 28.503907 0 15.722656 12.789063 28.507812 28.507813 28.507812s28.507812-12.789062 28.507812-28.507812c0-15.714844-12.789062-28.503907-28.507812-28.503907zm0 41.957031c-7.417969 0-13.449219-6.035156-13.449219-13.449218 0-7.417969 6.035156-13.449219 13.449219-13.449219 7.417968 0 13.449218 6.03125 13.449218 13.449219 0 7.414062-6.03125 13.449218-13.449218 13.449218zm0 0"/><path d="m442.324219 166.300781c-15.71875 0-28.503907 12.789063-28.503907 28.503907 0 15.722656 12.789063 28.507812 28.503907 28.507812 15.71875 0 28.507812-12.789062 28.507812-28.507812 0-15.714844-12.789062-28.503907-28.507812-28.503907zm0 41.957031c-7.414063 0-13.449219-6.035156-13.449219-13.449218 0-7.417969 6.035156-13.449219 13.449219-13.449219 7.417969 0 13.453125 6.03125 13.453125 13.449219 0 7.414062-6.035156 13.449218-13.453125 13.449218zm0 0"/><path d="m98.007812 247.585938c-15.71875 0-28.503906 12.789062-28.503906 28.507812s12.785156 28.503906 28.503906 28.503906 28.507813-12.785156 28.507813-28.503906-12.789063-28.507812-28.507813-28.507812zm0 41.957031c-7.417968 0-13.449218-6.035157-13.449218-13.449219 0-7.417969 6.03125-13.453125 13.449218-13.453125 7.417969 0 13.453126 6.035156 13.453126 13.453125 0 7.414062-6.035157 13.449219-13.453126 13.449219zm0 0"/><path d="m270.167969 247.585938c-15.71875 0-28.507813 12.789062-28.507813 28.507812s12.789063 28.503906 28.507813 28.503906 28.503906-12.785156 28.503906-28.503906-12.785156-28.507812-28.503906-28.507812zm0 41.957031c-7.417969 0-13.453125-6.035157-13.453125-13.449219 0-7.417969 6.035156-13.453125 13.453125-13.453125s13.449219 6.035156 13.449219 13.453125c0 7.414062-6.035157 13.449219-13.449219 13.449219zm0 0"/><path d="m356.246094 247.585938c-15.71875 0-28.507813 12.789062-28.507813 28.507812s12.789063 28.503906 28.507813 28.503906 28.507812-12.785156 28.507812-28.503906-12.789062-28.507812-28.507812-28.507812zm0 41.957031c-7.417969 0-13.449219-6.035157-13.449219-13.449219 0-7.417969 6.035156-13.453125 13.449219-13.453125 7.417968 0 13.449218 6.035156 13.449218 13.453125.003907 7.414062-6.03125 13.449219-13.449218 13.449219zm0 0"/><path d="m442.324219 247.585938c-15.71875 0-28.503907 12.789062-28.503907 28.507812s12.789063 28.503906 28.503907 28.503906c15.71875 0 28.507812-12.785156 28.507812-28.503906s-12.789062-28.507812-28.507812-28.507812zm0 41.957031c-7.414063 0-13.449219-6.035157-13.449219-13.449219 0-7.417969 6.035156-13.453125 13.449219-13.453125 7.417969 0 13.453125 6.035156 13.453125 13.453125 0 7.414062-6.035156 13.449219-13.453125 13.449219zm0 0"/><path d="m98.007812 328.871094c-15.71875 0-28.503906 12.789062-28.503906 28.507812s12.785156 28.503906 28.503906 28.503906 28.507813-12.789062 28.507813-28.503906c0-15.71875-12.789063-28.507812-28.507813-28.507812zm0 41.957031c-7.417968 0-13.449218-6.03125-13.449218-13.449219 0-7.414062 6.03125-13.449218 13.449218-13.449218 7.417969 0 13.453126 6.035156 13.453126 13.449218 0 7.417969-6.035157 13.449219-13.453126 13.449219zm0 0"/><path d="m184.089844 328.871094c-15.722656 0-28.507813 12.789062-28.507813 28.507812s12.789063 28.503906 28.507813 28.503906c15.714844 0 28.503906-12.789062 28.503906-28.503906 0-15.71875-12.789062-28.507812-28.503906-28.507812zm0 41.957031c-7.417969 0-13.453125-6.03125-13.453125-13.449219 0-7.414062 6.035156-13.449218 13.453125-13.449218 7.414062 0 13.449218 6.035156 13.449218 13.449218 0 7.417969-6.035156 13.449219-13.449218 13.449219zm0 0"/><path d="m270.167969 328.871094c-15.71875 0-28.507813 12.789062-28.507813 28.507812s12.789063 28.503906 28.507813 28.503906 28.503906-12.789062 28.503906-28.503906c0-15.71875-12.785156-28.507812-28.503906-28.507812zm0 41.957031c-7.417969 0-13.453125-6.03125-13.453125-13.449219 0-7.414062 6.035156-13.449218 13.453125-13.449218s13.449219 6.035156 13.449219 13.449218c0 7.417969-6.035157 13.449219-13.449219 13.449219zm0 0"/><path d="m356.246094 328.871094c-15.71875 0-28.507813 12.789062-28.507813 28.507812s12.789063 28.503906 28.507813 28.503906 28.507812-12.789062 28.507812-28.503906c0-15.71875-12.789062-28.507812-28.507812-28.507812zm0 41.957031c-7.417969 0-13.449219-6.03125-13.449219-13.449219 0-7.414062 6.035156-13.449218 13.449219-13.449218 7.417968 0 13.449218 6.035156 13.449218 13.449218 0 7.417969-6.03125 13.449219-13.449218 13.449219zm0 0"/><path d="m442.324219 328.871094c-15.71875 0-28.503907 12.789062-28.503907 28.507812s12.789063 28.503906 28.503907 28.503906c15.71875 0 28.507812-12.789062 28.507812-28.503906 0-15.71875-12.789062-28.507812-28.507812-28.507812zm0 41.957031c-7.414063 0-13.449219-6.03125-13.449219-13.449219 0-7.414062 6.035156-13.449218 13.449219-13.449218 7.417969 0 13.453125 6.035156 13.453125 13.449218 0 7.417969-6.035156 13.449219-13.453125 13.449219zm0 0"/><path d="m211.136719 256.019531c-2.589844-3.25-7.328125-3.78125-10.578125-1.191406l-16.472656 13.140625-16.46875-13.140625c-3.253907-2.589844-7.988282-2.054687-10.578126 1.191406-2.59375 3.25-2.0625 7.984375 1.1875 10.578125l13.789063 11-13.789063 11c-3.25 2.59375-3.78125 7.332032-1.1875 10.582032 1.484376 1.863281 3.675782 2.832031 5.886719 2.832031 1.644531 0 3.304688-.539063 4.6875-1.644531l16.472657-13.136719 16.472656 13.136719c1.386718 1.105468 3.042968 1.644531 4.6875 1.644531 2.210937 0 4.402344-.96875 5.890625-2.832031 2.589843-3.25 2.058593-7.988282-1.191407-10.582032l-13.789062-11 13.789062-11c3.25-2.59375 3.785157-7.328125 1.191407-10.578125zm0 0"/></svg>