<?xml version="1.0" encoding="UTF-8" standalone="no"?>
<!DOCTYPE svg PUBLIC "-//W3C//DTD SVG 1.1//EN" "http://www.w3.org/Graphics/SVG/1.1/DTD/svg11.dtd">
<svg version="1.1" xmlns="http://www.w3.org/2000/svg" xmlns:xlink="http://www.w3.org/1999/xlink" preserveAspectRatio="xMidYMid meet" viewBox="0 0 1000 750" width="750" height="750"><defs><path d="M329.71 1.01L342 2.26L354.15 3.99L366.13 6.19L377.95 8.86L389.59 11.97L401.04 15.53L412.29 19.52L423.33 23.94L434.16 28.77L444.76 34L455.12 39.63L465.23 45.64L475.09 52.02L484.68 58.77L493.99 65.88L503.02 73.33L511.76 81.11L520.18 89.22L528.29 97.65L536.08 106.38L543.53 115.4L550.64 124.72L557.39 134.31L563.77 144.16L569.78 154.28L575.41 164.64L580.65 175.23L585.48 186.06L589.89 197.1L593.89 208.35L597.45 219.8L600.56 231.44L603.23 243.25L605.43 255.24L607.16 267.38L608.41 279.67L609.16 292.1L609.42 304.66L609.37 309.96L609.24 315.23L609.01 320.48L608.7 325.71L608.31 330.91L607.82 336.09L607.25 341.24L606.6 346.36L605.86 351.46L605.03 356.53L604.13 361.57L603.14 366.59L602.07 371.57L600.92 376.52L599.68 381.44L598.37 386.33L596.98 391.18L595.52 396.01L593.97 400.79L592.35 405.55L590.65 410.26L588.88 414.94L587.04 419.58L585.12 424.19L583.12 428.76L581.06 433.28L578.92 437.77L576.72 442.22L574.44 446.62L572.09 450.99L569.68 455.31L567.19 459.58L564.64 463.82L562.02 468L559.34 472.15L556.59 476.24L553.78 480.29L550.9 484.29L547.97 488.24L544.96 492.15L568.84 492.15L569.54 492.15L570.24 492.17L570.94 492.21L571.64 492.26L572.33 492.32L573.02 492.39L573.71 492.48L574.4 492.58L575.08 492.69L575.76 492.82L576.44 492.96L577.11 493.12L577.78 493.28L578.44 493.46L579.1 493.65L579.76 493.86L580.41 494.07L581.06 494.3L581.7 494.55L582.34 494.8L582.97 495.07L583.59 495.35L584.21 495.64L584.83 495.94L585.44 496.26L586.04 496.59L586.64 496.93L587.23 497.28L587.81 497.64L588.39 498.02L588.96 498.4L589.52 498.8L590.08 499.21L590.63 499.63L591.17 500.07L591.7 500.51L592.22 500.97L592.74 501.43L593.24 501.91L593.74 502.4L739.8 648.43L740.8 649.48L741.74 650.56L742.64 651.67L743.48 652.8L744.27 653.96L745.01 655.14L745.7 656.35L746.34 657.57L746.93 658.82L747.46 660.08L747.95 661.36L748.38 662.66L748.76 663.96L749.09 665.28L749.37 666.61L749.6 667.94L749.78 669.28L749.9 670.63L749.98 671.98L750 673.33L749.97 674.68L749.89 676.03L749.76 677.37L749.58 678.71L749.35 680.05L749.06 681.37L748.72 682.69L748.34 684L747.9 685.29L747.4 686.57L746.86 687.83L746.27 689.08L745.62 690.3L744.92 691.51L744.17 692.69L743.37 693.85L742.52 694.99L741.62 696.09L740.66 697.17L739.66 698.22L698.2 739.68L697.16 740.68L696.1 741.64L695 742.54L693.87 743.39L692.72 744.19L691.55 744.94L690.35 745.64L689.13 746.29L687.89 746.88L686.63 747.42L685.36 747.91L684.07 748.35L682.77 748.74L681.46 749.07L680.13 749.36L678.8 749.59L677.46 749.77L676.12 749.9L674.78 749.98L673.43 750L672.08 749.98L670.73 749.9L669.39 749.77L668.05 749.59L666.71 749.36L665.39 749.07L664.07 748.74L662.77 748.35L661.47 747.91L660.2 747.42L658.93 746.88L657.69 746.29L656.46 745.64L655.26 744.94L654.07 744.19L652.91 743.39L651.78 742.54L650.67 741.64L649.59 740.68L648.54 739.68L502.48 593.65L501.99 593.15L501.52 592.64L501.05 592.12L500.59 591.6L500.15 591.07L499.72 590.53L499.3 589.98L498.89 589.42L498.49 588.86L498.1 588.29L497.73 587.72L497.36 587.13L497.01 586.54L496.67 585.94L496.34 585.34L496.03 584.73L495.72 584.12L495.43 583.5L495.15 582.87L494.88 582.24L494.63 581.6L494.39 580.96L494.16 580.31L493.94 579.66L493.74 579L493.54 578.34L493.36 577.68L493.2 577.01L493.05 576.34L492.9 575.66L492.78 574.98L492.66 574.3L492.56 573.61L492.47 572.93L492.4 572.23L492.34 571.54L492.29 570.84L492.26 570.15L492.24 569.45L492.23 568.74L492.23 544.87L488.33 547.87L484.37 550.81L480.37 553.68L476.32 556.5L472.23 559.24L468.09 561.93L463.9 564.54L459.66 567.09L455.39 569.58L451.07 571.99L446.7 574.34L442.29 576.62L437.85 578.83L433.36 580.96L428.83 583.03L424.26 585.02L419.66 586.94L415.01 588.79L410.33 590.56L405.61 592.25L400.86 593.88L396.07 595.42L391.25 596.89L386.39 598.28L381.5 599.59L376.58 600.82L371.63 601.97L366.65 603.04L361.63 604.03L356.59 604.93L351.52 605.76L346.42 606.5L341.3 607.15L336.14 607.72L330.96 608.21L325.76 608.61L320.53 608.92L315.28 609.14L310.01 609.27L304.71 609.32L292.15 609.07L279.72 608.31L267.42 607.06L255.28 605.33L243.29 603.13L231.48 600.47L219.84 597.35L208.39 593.79L197.14 589.8L186.09 585.38L175.26 580.55L164.66 575.32L154.3 569.69L144.19 563.68L134.33 557.3L124.74 550.55L115.42 543.44L106.39 536L97.66 528.21L89.23 520.1L81.12 511.68L73.34 502.95L65.89 493.92L58.78 484.6L52.03 475.02L45.64 465.16L39.63 455.05L34 444.69L28.77 434.09L23.94 423.26L19.52 412.22L15.53 400.97L11.97 389.52L8.85 377.89L6.19 366.07L3.99 354.09L2.26 341.95L1.01 329.65L0.25 317.22L0 304.66L0.25 292.1L1.01 279.67L2.26 267.38L3.99 255.24L6.19 243.25L8.85 231.44L11.97 219.8L15.53 208.35L19.52 197.1L23.94 186.06L28.77 175.23L34.01 164.64L39.63 154.28L45.65 144.16L52.03 134.31L58.79 124.72L65.89 115.4L73.34 106.38L81.13 97.65L89.24 89.22L97.67 81.11L106.4 73.33L115.43 65.88L124.74 58.77L134.34 52.02L144.19 45.64L154.31 39.63L164.67 34L175.27 28.77L186.1 23.94L197.14 19.52L208.39 15.53L219.84 11.97L231.48 8.86L243.3 6.19L255.28 3.99L267.43 2.26L279.72 1.01L292.15 0.26L304.71 0L317.28 0.26L329.71 1.01ZM287.39 94.45L278.87 95.32L270.46 96.51L262.15 98.04L253.97 99.88L245.9 102.04L237.97 104.5L230.18 107.27L222.53 110.32L215.04 113.67L207.7 117.29L200.53 121.19L193.52 125.35L186.7 129.77L180.06 134.44L173.61 139.36L167.37 144.52L161.32 149.91L155.49 155.52L149.88 161.35L144.49 167.4L139.34 173.65L134.43 180.09L129.76 186.73L125.34 193.56L121.18 200.56L117.29 207.73L113.67 215.07L110.33 222.56L107.28 230.2L104.51 237.99L102.05 245.92L99.9 253.97L98.06 262.15L96.53 270.45L95.34 278.85L94.48 287.36L93.95 295.97L93.78 304.66L93.95 313.37L94.48 321.98L95.34 330.5L96.54 338.92L98.06 347.22L99.91 355.4L102.07 363.46L104.53 371.39L107.29 379.18L110.35 386.83L113.7 394.33L117.32 401.66L121.21 408.84L125.38 415.84L129.8 422.66L134.47 429.3L139.39 435.74L144.55 441.99L149.94 448.03L155.55 453.86L161.39 459.47L167.43 464.86L173.68 470.01L180.13 474.93L186.77 479.6L193.59 484.01L200.6 488.17L207.77 492.06L215.11 495.68L222.6 499.02L230.25 502.07L238.04 504.83L245.96 507.3L254.02 509.45L262.2 511.29L270.5 512.81L278.9 514.01L287.41 514.87L296.02 515.39L304.71 515.57L313.42 515.39L322.04 514.87L330.56 514.01L338.97 512.81L347.28 511.29L355.46 509.44L363.53 507.28L371.46 504.82L379.25 502.05L386.9 499L394.39 495.65L401.73 492.03L408.9 488.14L415.91 483.97L422.73 479.55L429.37 474.88L435.82 469.96L442.06 464.81L448.11 459.42L453.94 453.8L459.55 447.97L464.94 441.93L470.09 435.68L475 429.23L479.67 422.59L484.09 415.77L488.25 408.77L492.14 401.59L495.76 394.26L499.1 386.76L502.15 379.12L504.92 371.33L507.38 363.41L509.53 355.35L511.37 347.17L512.9 338.88L514.09 330.47L514.95 321.96L515.48 313.36L515.65 304.66L515.48 295.96L514.95 287.34L514.09 278.82L512.89 270.41L511.37 262.1L509.52 253.92L507.36 245.86L504.9 237.93L502.14 230.14L499.08 222.49L495.73 215L492.11 207.66L488.22 200.49L484.05 193.48L479.63 186.66L474.96 180.02L470.04 173.58L464.88 167.33L459.49 161.29L453.88 155.46L448.04 149.85L442 144.46L435.75 139.31L429.3 134.39L422.66 129.73L415.84 125.31L408.83 121.15L401.66 117.26L394.32 113.64L386.83 110.3L379.18 107.25L371.39 104.49L363.47 102.03L355.41 99.87L347.23 98.03L338.93 96.51L330.53 95.31L322.02 94.45L313.41 93.93L304.71 93.75L296.01 93.93L287.39 94.45Z" id="a2xZryizR0"></path></defs><g><g><g><use xlink:href="#a2xZryizR0" opacity="1" fill="#ffffff" fill-opacity="1"></use><g><use xlink:href="#a2xZryizR0" opacity="1" fill-opacity="0" stroke="#000000" stroke-width="1" stroke-opacity="0"></use></g></g></g></g></svg>